<svg xmlns="http://www.w3.org/2000/svg" xmlns:xlink="http://www.w3.org/1999/xlink" id="screenshot-4bdf2990-23a9-80bf-8005-0ca0c30a9b7e" fill="none" version="1.1" viewBox="80.1 22.64 115.71 224.08"><g id="shape-4bdf2990-23a9-80bf-8005-0ca0c30a9b7e"><defs><clipPath id="frame-clip-4bdf2990-23a9-80bf-8005-0ca0c30a9b7e-render-1" class="frame-clip frame-clip-def"><rect rx="0" ry="0" x="0" y="0" width="270.933" height="270.933" transform="matrix(1.000000, 0.000000, 0.000000, 1.000000, 0.000000, 0.000000)"/></clipPath></defs><g class="frame-container-wrapper"><g class="frame-container-blur"><g class="frame-container-shadows"><g clip-path="url(#frame-clip-4bdf2990-23a9-80bf-8005-0ca0c30a9b7e-render-1)" fill="none"><g class="fills" id="fills-4bdf2990-23a9-80bf-8005-0ca0c30a9b7e"><rect rx="0" ry="0" x="0" y="0" width="270.933" height="270.933" transform="matrix(1.000000, 0.000000, 0.000000, 1.000000, 0.000000, 0.000000)" class="frame-background"/></g><g class="frame-children"><g id="shape-4bdf2990-23a9-80bf-8005-0ca0c30a9b83" width="1024" height="1024" rx="0" ry="0" style="fill: rgb(0, 0, 0);"><g id="shape-4bdf2990-23a9-80bf-8005-0ca0c30a9b84" style="display: none;"><g class="fills" id="fills-4bdf2990-23a9-80bf-8005-0ca0c30a9b84"><rect width="270.933" height="270.933" x="0" transform="matrix(1.000000, 0.000000, 0.000000, 1.000000, 0.000000, 0.000000)" style="fill: none;" ry="0" fill="none" rx="0" y="0.5"/></g></g><g id="shape-4bdf2990-23a9-80bf-8005-0ca0c30a9b85"><g class="fills" id="fills-4bdf2990-23a9-80bf-8005-0ca0c30a9b85"><path d="M80.659,160.932L195.806,160.932L195.806,181.816L80.659,181.816ZM126.379,22.643L149.521,22.643L149.521,246.727L126.379,246.727ZM80.095,87.554L195.241,87.554L195.241,108.439L80.095,108.439Z" style="font-size: 282.222px; font-family: &quot;Berkeley Mono Variable&quot;; stroke-width: 0.264583;"/></g></g></g></g></g></g></g></g></g></svg>